<svg xmlns="http://www.w3.org/2000/svg"  viewBox="0 0 100 100" width="100px" height="100px"><path d="M24.501,98.001c-1.021,0-2.042-0.245-2.952-0.709C19.361,96.179,18,93.959,18,91.5v-75 C18,10.71,22.71,6,28.5,6h47C81.29,6,86,10.71,86,16.5v13.545c8.23,2.719,14,10.419,14,19.455s-5.77,16.737-14,19.455V91.5 c0,3.326-2.551,6.5-6.056,6.5c-1.387,0-2.858-0.789-3.978-1.607L52.297,79.179L28.322,96.757 C27.215,97.567,25.889,98.001,24.501,98.001z" opacity=".35"/><path fill="#f2f2f2" d="M22.501,96.001c-1.021,0-2.042-0.245-2.952-0.709C17.361,94.179,16,91.959,16,89.5v-75 C16,8.71,20.71,4,26.5,4h47C79.29,4,84,8.71,84,14.5v13.545c8.23,2.719,14,10.419,14,19.455s-5.77,16.737-14,19.455V89.5 c0,2.459-1.361,4.679-3.552,5.793C79.54,95.756,78.521,96,77.5,96c-1.387,0-2.712-0.432-3.831-1.249L50,77.537l-23.678,17.22 C25.215,95.567,23.889,96.001,22.501,96.001z"/><path fill="#f66" d="M26.5,10.5h47c2.209,0,4,1.791,4,4v75L50,69.5l-27.5,20v-75C22.5,12.291,24.291,10.5,26.5,10.5z"/><circle cx="77.5" cy="47.5" r="12.5" fill="#96c362"/><path d="M77.5,63C68.953,63,62,56.047,62,47.5S68.953,32,77.5,32v3C70.607,35,65,40.607,65,47.5S70.607,60,77.5,60V63z" opacity=".35"/><path fill="#f2f2f2" d="M77.5,55c-0.829,0-1.5-0.672-1.5-1.5v-12c0-0.828,0.671-1.5,1.5-1.5s1.5,0.672,1.5,1.5v12 C79,54.328,78.329,55,77.5,55z"/><path fill="#f2f2f2" d="M83.5,49h-12c-0.829,0-1.5-0.672-1.5-1.5s0.671-1.5,1.5-1.5h12c0.829,0,1.5,0.672,1.5,1.5 S84.329,49,83.5,49z"/><path fill="none" stroke="#40396e" stroke-linejoin="round" stroke-miterlimit="10" stroke-width="3" d="M77.5,33.5v-19 c0-2.209-1.791-4-4-4h-47c-2.209,0-4,1.791-4,4v75l27.5-20l27.5,20v-28c7.732,0,14-6.268,14-14S85.232,33.5,77.5,33.5z"/></svg>