<svg xmlns="http://www.w3.org/2000/svg"  viewBox="0 0 48 48" width="20px" height="20px"><path fill="#fcbf95" d="M37.975,19.867c0.284,1.696,0.514,3.776-0.164,5.357c-0.678,1.581-1.519,3.108-1.92,4.781 c-0.378,1.578-0.35,3.237-0.796,4.797c-0.372,1.299-1.058,2.481-1.738,3.648c-0.811,1.393-1.623,2.785-2.434,4.178 c-0.605,1.039-1.239,2.109-2.214,2.813c-1.287,0.928-2.967,1.077-4.553,1.086c-1.093,0.006-2.256-0.06-3.152-0.686 c-0.445-0.311-0.792-0.739-1.132-1.162c-0.981-1.218-1.962-2.435-2.944-3.653c-0.469-0.583-0.941-1.169-1.309-1.821 c-0.669-1.188-0.965-2.544-1.252-3.877c-0.27-1.256-0.652-2.736-0.923-3.992c-0.968-1.07-1.66-2.649-2.223-3.978 c-0.821-1.938-1.659-4.041-1.18-6.091L24,20.965C24,20.965,36.399,18.363,37.975,19.867z"/><path fill="#513620" d="M27.988,45.434c-2.586,1.813-6.099,0.588-5.789,0.77c-1.752-0.083-4.65-4.406-4.65-4.406 c-0.065-0.812-0.103-1.486-0.168-2.298c-0.045-0.562-0.088-1.143,0.093-1.677c0.25-0.738,0.901-1.282,1.613-1.598 c0.825-0.367,3.91-0.2,4.81-0.271c0.735-0.058,3.933-0.406,4.666-0.329c0.606,0.064,1.232,0.162,1.741,0.497 c0.577,0.38,0.935,1.028,1.105,1.697c0.17,0.669,0.173,1.369,0.175,2.059c0.002,0.85,0.004,0.629,0.006,1.478 C31.59,41.356,30.016,45.25,27.988,45.434z M20.512,38.034c-0.426,0.697-0.608,1.545-0.453,2.347 c0.095,0.493,0.378,1.025,0.872,1.113c0.392,0.07,0.767-0.163,1.102-0.378c0.591-0.378,1.208-0.731,1.882-0.927 c0.674-0.196,1.415-0.226,2.066,0.034c0.413,0.165,0.777,0.44,1.193,0.597c0.416,0.157,0.938,0.169,1.254-0.144 c0.367-0.363,0.293-0.964,0.186-1.468c-0.1-0.473-0.225-0.956-0.477-1.368C25.634,38.244,23.034,38.303,20.512,38.034z"/><path fill="#010101" d="M21.051,25.413c-0.12-0.254-0.325-0.466-0.575-0.595c-0.474-0.244-0.982-0.155-1.454-0.07 c-0.455,0.08-0.92,0.123-1.383,0.127l-0.176,0.001c-0.66,0.001-1.481,0.004-2.074,0.551c-0.202,0.188-0.215,0.504-0.027,0.707 c0.099,0.106,0.232,0.16,0.367,0.16c0.121,0,0.243-0.044,0.34-0.133c0.281-0.259,0.773-0.281,1.267-0.283 c-0.003,0.021-0.019,0.045-0.019,0.065c-0.001,0.211,0.105,0.415,0.276,0.531c0.162,0.112,0.337,0.129,0.456,0.129 c0.028,0,0.054-0.001,0.075-0.002c0.352-0.016,0.939-0.042,1.324-0.479c0.038-0.043,0.072-0.089,0.145-0.188 c0.065-0.081,0.092-0.175,0.1-0.271c0.125-0.007,0.24,0.001,0.324,0.044c0.057,0.029,0.104,0.078,0.132,0.136 c0.117,0.249,0.416,0.354,0.666,0.236C21.063,25.961,21.17,25.663,21.051,25.413z"/><path fill="#010101" d="M32.226,24.931c-1.428-0.209-2.915-0.421-4.388-0.372c-0.276,0.01-0.492,0.242-0.482,0.518 s0.235,0.479,0.518,0.482c0.368-0.015,0.74-0.008,1.114,0.01c-0.057,0.214,0.025,0.447,0.226,0.562 c0.288,0.164,0.614,0.246,0.941,0.246c0.299,0,0.598-0.069,0.868-0.208c0.146-0.075,0.23-0.213,0.255-0.363 c0.217,0.03,0.435,0.061,0.65,0.092c0.064,0.022,0.134,0.034,0.203,0.034c0.081,0,0.162-0.016,0.235-0.049 c0.203-0.091,0.317-0.305,0.287-0.525C32.623,25.138,32.446,24.963,32.226,24.931z"/><path fill="#010101" d="M24,34.54c-0.122,0-0.254-0.009-0.39-0.037c-0.436-0.092-0.752-0.355-1.031-0.587 c-0.179-0.149-0.348-0.29-0.517-0.357c-0.18-0.072-0.392-0.068-0.567,0.011c-0.15,0.068-0.386,0.051-0.526-0.036 c-0.215-0.135-0.299-0.378-0.306-0.562c-0.016-0.565,0.22-1.13,0.631-1.513c-0.006,0.003,0.02-0.046,0.08-0.104 c0.2-0.189,0.517-0.18,0.707,0.021c0.181,0.192,0.18,0.49,0.004,0.681c-0.028,0.038-0.086,0.111-0.107,0.131 c-0.095,0.089-0.172,0.199-0.226,0.319c0.233-0.002,0.466,0.036,0.684,0.123c0.314,0.126,0.563,0.333,0.782,0.516 c0.218,0.181,0.405,0.337,0.599,0.378c0.107,0.023,0.244,0.016,0.38,0.009l0.827-0.041c0.091-0.005,0.194-0.011,0.239-0.031 c0.044-0.02,0.111-0.088,0.177-0.153c0.089-0.089,0.179-0.176,0.28-0.248c0.163-0.116,0.341-0.189,0.498-0.253 c0.103-0.042,0.273-0.112,0.302-0.154c0.007-0.051-0.077-0.22-0.128-0.32c-0.09-0.179-0.192-0.381-0.23-0.62 c-0.045-0.272,0.141-0.529,0.413-0.573c0.266-0.05,0.529,0.139,0.573,0.413c0.015,0.087,0.077,0.211,0.138,0.331 c0.144,0.287,0.341,0.68,0.168,1.129c-0.169,0.439-0.566,0.602-0.857,0.721c-0.116,0.047-0.227,0.092-0.296,0.142 c-0.057,0.041-0.104,0.091-0.152,0.14c-0.116,0.117-0.262,0.263-0.472,0.358c-0.215,0.098-0.428,0.109-0.599,0.118l-0.831,0.041 C24.172,34.535,24.089,34.54,24,34.54z"/><path fill="#010101" d="M21.079,42.007c-0.077,0-0.156-0.006-0.236-0.021c-0.75-0.135-1.15-0.868-1.275-1.51 c-0.173-0.896,0.016-1.882,0.518-2.703c0.101-0.165,0.287-0.258,0.479-0.236c2.525,0.27,5.046,0.204,7.493-0.191 c0.205-0.037,0.401,0.059,0.507,0.232c0.29,0.474,0.431,1.013,0.54,1.524c0.084,0.397,0.282,1.328-0.322,1.928 c-0.504,0.496-1.253,0.457-1.784,0.257c-0.238-0.09-0.463-0.213-0.688-0.339c-0.168-0.094-0.336-0.189-0.516-0.262 c-0.489-0.195-1.107-0.202-1.74-0.017c-0.638,0.186-1.244,0.543-1.752,0.868C21.987,41.74,21.57,42.007,21.079,42.007z M20.792,38.565c-0.263,0.548-0.351,1.16-0.242,1.721c0.061,0.314,0.234,0.674,0.47,0.716c0.201,0.036,0.504-0.153,0.744-0.307 c0.568-0.363,1.252-0.765,2.012-0.986c0.597-0.175,1.498-0.307,2.392,0.049c0.22,0.089,0.427,0.203,0.633,0.318 c0.18,0.101,0.358,0.203,0.551,0.275c0.243,0.092,0.574,0.121,0.728-0.031c0.194-0.193,0.12-0.668,0.048-1.009 c-0.075-0.354-0.154-0.659-0.267-0.924C25.545,38.732,23.17,38.791,20.792,38.565z"/><path fill="#231f20" d="M44.969,14.726c-0.45-0.369-1.039-0.512-1.608-0.632c-1.686-0.354-4.012-0.594-5.731-0.717 l-27.423,1.031c-1.842,0.344-4.507,0.579-6.379,0.515c-0.339-0.012-0.704-0.022-0.984,0.169c-0.354,0.244-0.444,0.752-0.313,1.162 s0.434,0.739,0.746,1.036c1.894,1.806,4.361,2.921,6.899,3.561c2.537,0.639,5.164,0.831,7.775,0.999 c4.6,0.296,9.258,0.52,13.784-0.351c2.335-0.45,4.604-1.185,6.865-1.919c2.138-0.694,4.307-1.403,6.169-2.662 c0.255-0.172,0.513-0.365,0.651-0.64C45.683,15.757,45.419,15.095,44.969,14.726z"/><path fill="#373837" d="M10.377,12.643c0,0-0.925,5.42,2.487,6.01s16.244,1.455,22.673-1.039 c1.762-0.62,2.112-0.821,2.28-2.361s-0.187-3.004-0.187-3.004S31.668,14.533,24,14.408C16.332,14.283,12.12,13.48,10.377,12.643z"/><path fill="#231f20" d="M11.524,4.009c0,0-1.815,7.569-0.707,8.626c2.77,0.967,9.459,2.11,14.141,1.754 c4.682-0.355,8.635-0.426,12.548-2.57c-0.559-5.73-1.4-8.829-1.4-8.829s-7.542-1.613-12.939-1.435 C17.817,2.496,12.104,3.25,11.524,4.009z"/><path fill="#010101" d="M45.287,14.34c-0.532-0.436-1.192-0.603-1.823-0.735c-1.824-0.383-4.173-0.601-5.409-0.697 c-0.143-3.044-0.488-6.373-1.054-9.959c-0.036-0.228-0.224-0.401-0.453-0.42c-1.695-0.141-3.444-0.417-5.136-0.685 c-3.813-0.604-7.761-1.229-11.565-0.395c-0.588,0.129-1.171,0.29-1.753,0.452c-1.185,0.329-2.304,0.64-3.466,0.678l-0.372,0.01 c-1.071,0.025-2.284,0.054-3.205,0.75c-0.099,0.074-0.166,0.184-0.189,0.306C10.214,7.07,9.901,10.59,9.902,13.953 c-1.871,0.331-4.37,0.528-6.055,0.469c-0.365-0.013-0.868-0.029-1.284,0.258c-0.511,0.351-0.719,1.061-0.507,1.727 c0.165,0.516,0.519,0.902,0.877,1.245c1.684,1.605,3.912,2.791,6.615,3.541c-0.515,2.279,0.482,4.637,1.212,6.361 c0.61,1.439,1.283,2.933,2.223,4.016c0.131,0.598,0.284,1.24,0.437,1.883c0.162,0.68,0.324,1.358,0.458,1.981 c0.292,1.353,0.593,2.751,1.306,4.017c0.389,0.689,0.88,1.299,1.354,1.889l2.944,3.654c0.359,0.444,0.73,0.904,1.235,1.258 c0.958,0.669,2.152,0.775,3.312,0.775c0.043,0,0.086,0,0.129,0c1.599-0.009,3.424-0.156,4.843-1.181 c1.078-0.776,1.756-1.939,2.354-2.966l2.435-4.179c0.688-1.18,1.397-2.399,1.787-3.762c0.252-0.881,0.359-1.787,0.463-2.664 c0.089-0.749,0.172-1.457,0.339-2.155c0.28-1.172,0.782-2.26,1.313-3.411c0.197-0.429,0.395-0.857,0.58-1.289 c0.681-1.591,0.514-3.618,0.252-5.29c0.078-0.025,0.156-0.05,0.234-0.075c2.146-0.696,4.363-1.417,6.295-2.724 c0.294-0.199,0.623-0.444,0.818-0.831C46.261,15.719,45.873,14.821,45.287,14.34z M37.053,12.855 c0.031,0.634,0.063,1.269,0.075,1.876c0.012,0.647-0.003,1.263-0.312,1.678c-0.335,0.452-0.983,0.63-1.673,0.786 c-6.093,1.372-14.085,2.73-21.876,1.039c-0.836-0.182-1.738-0.457-2.103-1.121c-0.196-0.358-0.229-0.813-0.248-1.326 c-0.031-0.815-0.032-1.649-0.021-2.487c0,0,0,0,0.001,0c0.181,0.111,0.373,0.202,0.57,0.285c0.033,0.014,0.066,0.028,0.099,0.041 c0.395,0.155,0.809,0.264,1.223,0.345c0.047,0.009,0.094,0.018,0.141,0.027c0.197,0.036,0.392,0.07,0.584,0.099 c3.573,0.542,6.918,0.813,10.059,0.813c0.629,0,1.25-0.011,1.863-0.033c0.341-0.012,0.674-0.035,1.01-0.054 c0.264-0.015,0.532-0.025,0.793-0.044c0.452-0.033,0.896-0.078,1.339-0.123c0.134-0.014,0.272-0.023,0.406-0.038 c0.511-0.057,1.014-0.126,1.514-0.2c0.06-0.009,0.121-0.016,0.181-0.025c0.542-0.083,1.075-0.177,1.604-0.279 c0.015-0.003,0.03-0.005,0.045-0.008c1.637-0.32,3.21-0.737,4.726-1.249C37.052,12.855,37.053,12.855,37.053,12.855z M11.806,4.033 c0.658-0.402,1.58-0.424,2.473-0.444l0.383-0.01c1.281-0.042,2.511-0.384,3.701-0.715c0.563-0.156,1.128-0.313,1.698-0.438 c3.62-0.792,7.474-0.184,11.195,0.405c1.581,0.25,3.211,0.508,4.817,0.659c0.458,2.961,0.764,5.745,0.927,8.328 c-4.068,1.41-8.573,2.104-13.625,2.087c-0.138,0-0.283-0.011-0.422-0.013c-0.877-0.01-1.763-0.031-2.674-0.083 c-0.373-0.021-0.764-0.065-1.143-0.094c-0.693-0.052-1.38-0.096-2.092-0.172c-1.104-0.117-2.231-0.263-3.383-0.437 c-1.034-0.156-2.089-0.373-2.727-1.058c0,0-0.001-0.001-0.002-0.001C11.031,9.403,11.314,6.691,11.806,4.033z M30.49,42.377 c-0.548,0.94-1.169,2.007-2.075,2.659c-1.19,0.859-2.823,0.983-4.264,0.991c-0.971,0.002-2.06-0.035-2.862-0.596 c-0.388-0.271-0.699-0.657-1.029-1.065l-2.224-2.76c-0.026-0.343-0.05-0.671-0.072-0.991c-0.026-0.373-0.052-0.747-0.085-1.154 c-0.04-0.507-0.082-1.032,0.069-1.478c0.179-0.527,0.668-1.002,1.343-1.302c0.475-0.21,2.233-0.204,3.286-0.208 c0.57,0.001,1.074,0.001,1.359-0.022c0.168-0.013,0.463-0.041,0.827-0.075c1.129-0.108,3.224-0.304,3.748-0.254 c0.509,0.054,1.089,0.134,1.519,0.418c0.416,0.274,0.734,0.772,0.896,1.402c0.156,0.616,0.157,1.287,0.158,1.937l0.007,1.467 L30.49,42.377z M37.351,25.026c-0.182,0.424-0.375,0.845-0.568,1.265c-0.528,1.146-1.074,2.329-1.378,3.598 c-0.181,0.755-0.271,1.525-0.359,2.271c-0.104,0.876-0.201,1.702-0.431,2.506c-0.355,1.242-1.034,2.407-1.689,3.533l-0.842,1.446 c-0.003-0.618-0.021-1.294-0.188-1.949c-0.223-0.872-0.689-1.579-1.314-1.99c-0.617-0.407-1.338-0.512-1.964-0.577 c-0.571-0.064-2.264,0.092-3.948,0.252c-0.356,0.034-0.646,0.062-0.81,0.075c-0.269,0.021-0.737,0.02-1.28,0.019 c-1.729,0.002-3.074,0.019-3.693,0.294c-0.942,0.419-1.611,1.092-1.884,1.895c-0.218,0.641-0.165,1.298-0.118,1.879 c0.019,0.241,0.034,0.458,0.05,0.682c-0.319-0.407-0.631-0.823-0.879-1.262c-0.638-1.134-0.923-2.457-1.198-3.737 c-0.136-0.63-0.3-1.315-0.463-2.002c-0.163-0.682-0.325-1.363-0.46-1.99c-0.019-0.086-0.06-0.165-0.118-0.23 c-0.883-0.975-1.538-2.43-2.134-3.837c-0.875-2.065-1.563-3.922-1.16-5.731c0.331,0.076,0.662,0.147,0.995,0.211 c0.001,0.002,0,0.005,0.001,0.007c0.196,0.497,0.484,1.016,0.764,1.518c0.376,0.677,0.766,1.376,0.919,2.005 c0.017,0.068,0.071,0.21,0.19,0.335l0.142,2.125c0.043,0.654,0.114,1.75,0.872,2.408c0.532,0.463,1.219,0.569,1.882,0.615 c0.384,0.026,0.77,0.039,1.157,0.039c0.463,0,0.927-0.019,1.388-0.057c0.842-0.068,1.806-0.219,2.572-0.813 c0.962-0.744,1.329-1.985,1.597-2.892c0.118-0.401,0.331-1.13,0.273-1.86c0.417-0.103,0.883-0.128,1.359-0.071 c0.255,0.032,0.507,0.093,0.756,0.168c-0.032,0.697,0.163,1.38,0.276,1.763c0.267,0.905,0.632,2.146,1.595,2.892 c0.768,0.594,1.731,0.744,2.573,0.813c0.461,0.038,0.925,0.057,1.388,0.057c0.388,0,0.773-0.013,1.157-0.039 c0.663-0.046,1.35-0.152,1.882-0.615c0.758-0.658,0.829-1.754,0.872-2.407l0.142-2.126c0.119-0.125,0.173-0.267,0.19-0.338 c0.251-1.025,1.458-3.493,2.111-4.642C37.791,22.013,37.904,23.737,37.351,25.026z M33.578,23.245 c-0.436-0.061-0.704-0.052-0.989-0.046c-0.179,0.005-0.373,0.01-0.638-0.004c-0.487-0.027-0.917-0.077-1.33-0.124 c-0.785-0.09-1.532-0.174-2.484-0.099c-0.809,0.063-1.646,0.178-2.219,0.8c-0.123,0.133-0.216,0.278-0.293,0.429 c-0.287-0.083-0.577-0.152-0.871-0.189c-0.625-0.078-1.208-0.024-1.756,0.118c-0.07-0.125-0.151-0.246-0.255-0.358 c-0.573-0.622-1.41-0.736-2.219-0.8c-0.958-0.076-1.698,0.009-2.484,0.099c-0.413,0.047-0.843,0.097-1.33,0.124 c-0.265,0.015-0.458,0.01-0.638,0.004c-0.285-0.006-0.553-0.015-0.988,0.046c-0.402,0.055-0.945,0.193-1.317,0.603 c-0.185-0.393-0.399-0.783-0.612-1.166c-0.161-0.29-0.311-0.568-0.447-0.838c1.665,0.248,3.375,0.387,5.212,0.505 c2.216,0.142,4.407,0.262,6.57,0.262c2.485,0,4.934-0.158,7.342-0.621c1.498-0.288,2.974-0.7,4.431-1.146 c-0.472,0.905-1.016,2.046-1.389,2.981C34.501,23.434,33.972,23.299,33.578,23.245z M34.282,25.314l-0.15,2.255 c-0.044,0.674-0.121,1.363-0.53,1.719c-0.31,0.269-0.805,0.338-1.294,0.371c-0.793,0.056-1.598,0.049-2.395-0.016 c-0.696-0.057-1.482-0.174-2.043-0.607c-0.654-0.506-0.952-1.379-1.248-2.384c-0.24-0.812-0.424-1.707,0.032-2.202 c0.327-0.356,0.925-0.431,1.561-0.481c0.231-0.018,0.448-0.025,0.657-0.025c0.567,0,1.074,0.058,1.636,0.122 c0.431,0.049,0.879,0.1,1.387,0.128c0.303,0.018,0.52,0.012,0.722,0.006c0.263-0.01,0.471-0.013,0.825,0.036 c0.406,0.057,0.655,0.159,0.76,0.314C34.312,24.716,34.303,25.006,34.282,25.314z M22.04,26.652 c-0.297,1.005-0.597,1.878-1.25,2.384c-0.56,0.434-1.346,0.551-2.042,0.607c-0.797,0.063-1.602,0.07-2.395,0.016 c-0.489-0.033-0.984-0.103-1.294-0.371c-0.409-0.355-0.486-1.045-0.53-1.72l-0.15-2.254c-0.021-0.309-0.029-0.599,0.081-0.765 c0.104-0.155,0.354-0.258,0.761-0.314c0.234-0.032,0.404-0.041,0.568-0.041c0.084,0,0.167,0.002,0.256,0.005 c0.203,0.006,0.42,0.012,0.722-0.006c0.508-0.028,0.956-0.079,1.387-0.128c0.77-0.089,1.434-0.163,2.293-0.097 c0.636,0.051,1.233,0.125,1.561,0.481C22.463,24.944,22.279,25.841,22.04,26.652z M44.976,16.053 c-0.087,0.171-0.287,0.317-0.485,0.451c-1.814,1.228-3.964,1.926-6.059,2.605c-2.208,0.716-4.49,1.456-6.79,1.898 c-4.386,0.845-8.964,0.646-13.658,0.344c-2.772-0.179-5.264-0.376-7.685-0.986c-2.768-0.696-5.014-1.853-6.676-3.437 c-0.262-0.251-0.518-0.524-0.614-0.826c-0.074-0.232-0.021-0.501,0.121-0.599c0.146-0.101,0.433-0.091,0.682-0.081 c1.726,0.058,4.166-0.128,6.099-0.457c0.006,0.285-0.004,0.578,0.007,0.859c0.024,0.618,0.07,1.219,0.371,1.768 c0.557,1.017,1.711,1.389,2.767,1.617c2.666,0.579,5.347,0.811,7.968,0.811c5.229,0,10.216-0.922,14.341-1.852 c0.847-0.191,1.718-0.438,2.256-1.164c0.496-0.668,0.523-1.499,0.509-2.293c-0.005-0.258-0.024-0.535-0.032-0.797 c1.997,0.158,3.899,0.403,5.162,0.668c0.531,0.112,1.037,0.236,1.395,0.53C44.923,15.335,45.123,15.758,44.976,16.053z"/></svg>