<svg xmlns="http://www.w3.org/2000/svg" width="48" height="48"><linearGradient id="a" x1="41.018" x2="45.176" y1="26" y2="26" gradientUnits="userSpaceOnUse"><stop offset="0" stop-color="#3537b0"/><stop offset="1" stop-color="#4646cf"/></linearGradient><path fill="url(#a)" d="M43 11h-3v30h3a2 2 0 0 0 2-2V13a2 2 0 0 0-2-2z"/><path fill="#5286ff" d="M41 39V9a2 2 0 0 0-2-2H5a2 2 0 0 0-2 2v30a2 2 0 0 0 2 2h38a2 2 0 0 1-2-2z"/><path fill="#fff" d="M37 17H7a1 1 0 0 1-1-1v-2a1 1 0 0 1 1-1h30a1 1 0 0 1 1 1v2a1 1 0 0 1-1 1zM19 36H7a1 1 0 0 1-1-1V22a1 1 0 0 1 1-1h12a1 1 0 0 1 1 1v13a1 1 0 0 1-1 1zM38 24H24v-2a1 1 0 0 1 1-1h12a1 1 0 0 1 1 1v2z"/><path fill="#e6eeff" d="M24 24h14v3H24z"/><path fill="#ccdcff" d="M24 27h14v3H24z"/><path fill="#b3cbff" d="M24 30h14v3H24z"/><path fill="#9abaff" d="M37 36H25a1 1 0 0 1-1-1v-2h14v2a1 1 0 0 1-1 1z"/></svg>